<svg id="Layer_1" data-name="Layer 1" xmlns="http://www.w3.org/2000/svg" viewBox="0 0 91.33 65.7"><defs><style>.cls-1{fill:#231f20;}</style></defs><title>chris-cronin-logo</title><path class="cls-1" d="M62.2,57.29H38.6L26.8,36.85,38.6,16.42H62.2l0.14,0.25L74,36.85Zm-23-1H61.62L72.84,36.85,61.62,17.42H39.18L28,36.85Z" transform="translate(-3.72 -16.42)"/><path class="cls-1" d="M50.38,56.14L33.81,46.57V27.44l16.57-9.57L67,27.44V46.57ZM36.64,44.94l13.74,7.93,13.74-7.93V29.07L50.38,21.14,36.64,29.07V44.94Z" transform="translate(-3.72 -16.42)"/><path class="cls-1" d="M42.92,45.2a10.67,10.67,0,0,1-3.27-7.88A11.15,11.15,0,0,1,50.83,26.15,11.27,11.27,0,0,1,58.32,29a0.56,0.56,0,0,1,0,.87l-0.84.84q-0.34.43-.8,0a8.86,8.86,0,0,0-5.91-2.32A8.14,8.14,0,0,0,44.67,31a9.09,9.09,0,0,0,0,12.53,8.14,8.14,0,0,0,6.13,2.63,7.93,7.93,0,0,0,2.4-.36A8.23,8.23,0,0,0,55,45q0.68-.42,1.7-1.19a0.61,0.61,0,0,1,.74-0.09l0.93,0.84a0.46,0.46,0,0,1,.17.4,0.66,0.66,0,0,1-.2.43,10.4,10.4,0,0,1-7.52,3A10.82,10.82,0,0,1,42.92,45.2Z" transform="translate(-3.72 -16.42)"/><path class="cls-1" d="M51,43.8a6.43,6.43,0,0,1-6.43-6.43,6.2,6.2,0,0,1,1.89-4.55,6.49,6.49,0,0,1,4.22-1.88,0.32,0.32,0,0,1,.37.34V32q0,0.32-.34.32a5.1,5.1,0,0,0-3.35,1.46,4.69,4.69,0,0,0-1.42,3.57,5.23,5.23,0,0,0,5.1,5.1A4.69,4.69,0,0,0,54.61,41a4.57,4.57,0,0,0,.83-1.12,4.74,4.74,0,0,0,.42-1.05q0.11-.45.21-1.18a0.35,0.35,0,0,1,.26-0.34l0.72,0a0.26,0.26,0,0,1,.23.09,0.38,0.38,0,0,1,.09.26,6,6,0,0,1-1.84,4.29A6.23,6.23,0,0,1,51,43.8Z" transform="translate(-3.72 -16.42)"/><path class="cls-1" d="M3.72,67.56A4.23,4.23,0,0,1,5,64.47a4.08,4.08,0,0,1,3-1.28,3.6,3.6,0,0,1,3,1.45,0.37,0.37,0,0,1-.08.58l-0.39.33a0.5,0.5,0,0,1-.25.13A0.21,0.21,0,0,1,10,65.62l-0.18-.16A2.44,2.44,0,0,0,8,64.6a2.58,2.58,0,0,0-2,.85,2.94,2.94,0,0,0-.8,2.09A3,3,0,0,0,6,69.65a2.52,2.52,0,0,0,1.95.87,2.89,2.89,0,0,0,.8-0.1,2,2,0,0,0,.59-0.26,4.15,4.15,0,0,0,.45-0.35,4.45,4.45,0,0,0,.36-0.36,0.43,0.43,0,0,1,.62,0L11,69.57a0.39,0.39,0,0,1,.15.58,3.75,3.75,0,0,1-1.33,1.26A3.63,3.63,0,0,1,8,71.89a4.1,4.1,0,0,1-3-1.24A4.17,4.17,0,0,1,3.72,67.56Z" transform="translate(-3.72 -16.42)"/><path class="cls-1" d="M13.5,71.29V57.58a0.43,0.43,0,0,1,.39-0.39h0.64a0.37,0.37,0,0,1,.28.12,0.39,0.39,0,0,1,.11.27v6.71L15.24,64a3.52,3.52,0,0,1,1-.56,4,4,0,0,1,1.44-.27,3,3,0,0,1,2.38,1,4.12,4.12,0,0,1,.83,2.77v4.37a0.43,0.43,0,0,1-.39.39H19.86a0.43,0.43,0,0,1-.39-0.39V66.92A2.7,2.7,0,0,0,19,65.17a1.69,1.69,0,0,0-1.38-.59,3.38,3.38,0,0,0-1.37.29,3.93,3.93,0,0,0-1,.58l-0.31.29v5.55a0.39,0.39,0,0,1-.11.27,0.37,0.37,0,0,1-.28.12H13.89A0.43,0.43,0,0,1,13.5,71.29Z" transform="translate(-3.72 -16.42)"/><path class="cls-1" d="M23.75,71.29v-7.5a0.39,0.39,0,0,1,.11-0.27,0.36,0.36,0,0,1,.28-0.12h0.39a0.33,0.33,0,0,1,.35.29l0.17,0.6,0.17-.19a2.43,2.43,0,0,1,.42-0.36,3.24,3.24,0,0,1,.79-0.37,3.36,3.36,0,0,1,1.11-.18,5.64,5.64,0,0,1,.71,0,1.4,1.4,0,0,1,.58.21,0.33,0.33,0,0,1,.16.43l-0.25.7a0.33,0.33,0,0,1-.5.19,2,2,0,0,0-.81-0.17,2.71,2.71,0,0,0-1.26.29,2.41,2.41,0,0,0-.79.58l-0.21.29v5.53a0.43,0.43,0,0,1-.39.39H24.15a0.36,0.36,0,0,1-.28-0.12A0.39,0.39,0,0,1,23.75,71.29Z" transform="translate(-3.72 -16.42)"/><path class="cls-1" d="M32.06,59.28a1,1,0,0,1-.7.28,1,1,0,0,1-1-1,1,1,0,0,1,.28-0.7,0.93,0.93,0,0,1,.69-0.29,1,1,0,0,1,1,1A0.93,0.93,0,0,1,32.06,59.28Zm-1.39,12v-7.5a0.39,0.39,0,0,1,.11-0.27,0.36,0.36,0,0,1,.28-0.12h0.64a0.43,0.43,0,0,1,.39.39v7.5a0.43,0.43,0,0,1-.39.39H31.07a0.36,0.36,0,0,1-.28-0.12A0.39,0.39,0,0,1,30.67,71.29Z" transform="translate(-3.72 -16.42)"/><path class="cls-1" d="M34.65,71a0.35,0.35,0,0,1-.1-0.43l0.16-.27L34.84,70a0.36,0.36,0,0,1,.56-0.06l0.25,0.19a2.89,2.89,0,0,0,.74.36,2.81,2.81,0,0,0,1,.18,1.57,1.57,0,0,0,1-.28,0.87,0.87,0,0,0,.36-0.71,1,1,0,0,0-.39-0.82A8.56,8.56,0,0,0,36.87,68a10.44,10.44,0,0,1-1.13-.62,3.2,3.2,0,0,1-.84-0.84,2,2,0,0,1-.39-1.21,2.09,2.09,0,0,1,.66-1.47,2.62,2.62,0,0,1,2-.68,4,4,0,0,1,2.3.64,0.43,0.43,0,0,1,.12.64l-0.17.33a0.4,0.4,0,0,1-.6.19l-0.58-.25a2.86,2.86,0,0,0-1.08-.25,1.34,1.34,0,0,0-.9.25,0.75,0.75,0,0,0-.28.58,0.86,0.86,0,0,0,.25.6,1.93,1.93,0,0,0,.48.39l0.81,0.41q0.68,0.33,1.06.54a6.82,6.82,0,0,1,.82.55,2.08,2.08,0,0,1,.64.77,2.27,2.27,0,0,1,.2,1,2.12,2.12,0,0,1-.81,1.64,3,3,0,0,1-2.05.7A4.28,4.28,0,0,1,34.65,71Z" transform="translate(-3.72 -16.42)"/><path class="cls-1" d="M46.4,67.56a4.23,4.23,0,0,1,1.27-3.09,4.08,4.08,0,0,1,3-1.28,3.6,3.6,0,0,1,3,1.45,0.37,0.37,0,0,1-.08.58l-0.39.33a0.5,0.5,0,0,1-.25.13,0.21,0.21,0,0,1-.18-0.06l-0.18-.16a2.44,2.44,0,0,0-1.91-.87,2.58,2.58,0,0,0-2,.85,2.94,2.94,0,0,0-.8,2.09,3,3,0,0,0,.79,2.11,2.52,2.52,0,0,0,1.95.87,2.89,2.89,0,0,0,.8-0.1A2,2,0,0,0,52,70.16a4.15,4.15,0,0,0,.45-0.35,4.45,4.45,0,0,0,.36-0.36,0.43,0.43,0,0,1,.62,0l0.23,0.17a0.39,0.39,0,0,1,.15.58,3.75,3.75,0,0,1-1.33,1.26,3.63,3.63,0,0,1-1.84.48,4.1,4.1,0,0,1-3-1.24A4.17,4.17,0,0,1,46.4,67.56Z" transform="translate(-3.72 -16.42)"/><path class="cls-1" d="M56.16,71.29v-7.5a0.39,0.39,0,0,1,.11-0.27,0.36,0.36,0,0,1,.28-0.12h0.39a0.33,0.33,0,0,1,.35.29l0.17,0.6,0.17-.19a2.43,2.43,0,0,1,.42-0.36,3.24,3.24,0,0,1,.79-0.37,3.36,3.36,0,0,1,1.11-.18,5.64,5.64,0,0,1,.71,0,1.4,1.4,0,0,1,.58.21,0.33,0.33,0,0,1,.16.43l-0.25.7a0.33,0.33,0,0,1-.5.19,2,2,0,0,0-.81-0.17,2.71,2.71,0,0,0-1.26.29,2.41,2.41,0,0,0-.79.58l-0.21.29v5.53a0.43,0.43,0,0,1-.39.39H56.55a0.36,0.36,0,0,1-.28-0.12A0.39,0.39,0,0,1,56.16,71.29Z" transform="translate(-3.72 -16.42)"/><path class="cls-1" d="M62.41,67.52a4.31,4.31,0,0,1,1.2-3,4,4,0,0,1,5.84,0,4.31,4.31,0,0,1,1.2,3,4.36,4.36,0,0,1-1.2,3.09,4,4,0,0,1-5.84,0A4.36,4.36,0,0,1,62.41,67.52Zm1.43,0a3.13,3.13,0,0,0,.78,2.14,2.53,2.53,0,0,0,3.83,0,3.13,3.13,0,0,0,.78-2.14,3,3,0,0,0-.78-2.09,2.55,2.55,0,0,0-3.83,0A3,3,0,0,0,63.84,67.52Z" transform="translate(-3.72 -16.42)"/><path class="cls-1" d="M73,71.29v-7.5a0.39,0.39,0,0,1,.11-0.27,0.36,0.36,0,0,1,.28-0.12h0.39a0.31,0.31,0,0,1,.33.25l0.19,0.64L74.64,64a3.83,3.83,0,0,1,1.08-.56,4.25,4.25,0,0,1,1.49-.27q3.21,0,3.21,3.73v4.37a0.39,0.39,0,0,1-.11.27,0.36,0.36,0,0,1-.28.12H79.36a0.36,0.36,0,0,1-.28-0.12A0.39,0.39,0,0,1,79,71.29V66.92a2.7,2.7,0,0,0-.49-1.75,1.69,1.69,0,0,0-1.38-.59,3.31,3.31,0,0,0-1.36.3,3.66,3.66,0,0,0-1,.59l-0.33.29v5.53a0.43,0.43,0,0,1-.39.39H73.4a0.36,0.36,0,0,1-.28-0.12A0.39,0.39,0,0,1,73,71.29Z" transform="translate(-3.72 -16.42)"/><path class="cls-1" d="M84.65,59.28a1,1,0,0,1-.7.28,1,1,0,0,1-1-1,1,1,0,0,1,.28-0.7,0.93,0.93,0,0,1,.69-0.29,1,1,0,0,1,1,1A0.93,0.93,0,0,1,84.65,59.28Zm-1.39,12v-7.5a0.39,0.39,0,0,1,.11-0.27,0.36,0.36,0,0,1,.28-0.12h0.64a0.43,0.43,0,0,1,.39.39v7.5a0.43,0.43,0,0,1-.39.39H83.65a0.36,0.36,0,0,1-.28-0.12A0.39,0.39,0,0,1,83.26,71.29Z" transform="translate(-3.72 -16.42)"/><path class="cls-1" d="M87.63,71.29v-7.5a0.39,0.39,0,0,1,.11-0.27A0.36,0.36,0,0,1,88,63.4h0.39a0.31,0.31,0,0,1,.33.25l0.19,0.64L89.27,64a3.83,3.83,0,0,1,1.08-.56,4.25,4.25,0,0,1,1.49-.27q3.21,0,3.21,3.73v4.37a0.39,0.39,0,0,1-.11.27,0.36,0.36,0,0,1-.28.12H94a0.36,0.36,0,0,1-.28-0.12,0.39,0.39,0,0,1-.11-0.27V66.92a2.7,2.7,0,0,0-.49-1.75,1.69,1.69,0,0,0-1.38-.59,3.31,3.31,0,0,0-1.36.3,3.66,3.66,0,0,0-1,.59l-0.33.29v5.53a0.43,0.43,0,0,1-.39.39H88a0.36,0.36,0,0,1-.28-0.12A0.39,0.39,0,0,1,87.63,71.29Z" transform="translate(-3.72 -16.42)"/><path class="cls-1" d="M14.94,81.9V77a0.14,0.14,0,0,1,.14-0.14h1.64a1.61,1.61,0,0,1,1.17.48,1.56,1.56,0,0,1,.49,1.15,1.61,1.61,0,0,1-.48,1.18,1.58,1.58,0,0,1-1.17.49H15.5V81.9a0.15,0.15,0,0,1-.14.14H15.08A0.14,0.14,0,0,1,14.94,81.9Zm0.56-2.29h1.18a1.13,1.13,0,0,0,1.12-1.13,1,1,0,0,0-.33-0.75,1.13,1.13,0,0,0-.79-0.31H15.5v2.19Z" transform="translate(-3.72 -16.42)"/><path class="cls-1" d="M21.1,81.9V77a0.15,0.15,0,0,1,.14-0.14h0.29a0.14,0.14,0,0,1,.14.14v2.16h3V77a0.14,0.14,0,0,1,.14-0.14H25.1a0.15,0.15,0,0,1,.14.14v4.9a0.15,0.15,0,0,1-.14.14H24.81a0.14,0.14,0,0,1-.14-0.14V79.66h-3V81.9a0.14,0.14,0,0,1-.14.14H21.24A0.15,0.15,0,0,1,21.1,81.9Z" transform="translate(-3.72 -16.42)"/><path class="cls-1" d="M28.9,81.35a2.68,2.68,0,1,1,1.88.77A2.56,2.56,0,0,1,28.9,81.35Zm0.37-3.4a2.08,2.08,0,0,0-.63,1.52A2.16,2.16,0,1,0,29.28,77.95Z" transform="translate(-3.72 -16.42)"/><path class="cls-1" d="M37,81.9V77.36H35.69a0.14,0.14,0,0,1-.14-0.14V77a0.14,0.14,0,0,1,.14-0.14h3.14A0.14,0.14,0,0,1,39,77v0.21a0.14,0.14,0,0,1-.14.14H37.54V81.9a0.14,0.14,0,0,1,0,.1,0.13,0.13,0,0,1-.1,0H37.12a0.13,0.13,0,0,1-.1,0A0.14,0.14,0,0,1,37,81.9Z" transform="translate(-3.72 -16.42)"/><path class="cls-1" d="M41.84,81.35a2.68,2.68,0,1,1,1.88.77A2.56,2.56,0,0,1,41.84,81.35Zm0.37-3.4a2.08,2.08,0,0,0-.63,1.52A2.16,2.16,0,1,0,42.22,77.95Z" transform="translate(-3.72 -16.42)"/><path class="cls-1" d="M49.68,81.35a2.67,2.67,0,0,1,1.89-4.55,2.7,2.7,0,0,1,1.79.69,0.13,0.13,0,0,1,0,.21l-0.21.21a0.12,0.12,0,0,1-.19,0,2.49,2.49,0,0,0-.67-0.42,1.87,1.87,0,0,0-.74-0.16,1.94,1.94,0,0,0-1.46.63,2.1,2.1,0,0,0-.6,1.5,2.12,2.12,0,0,0,.6,1.5,1.92,1.92,0,0,0,1.46.64,3.06,3.06,0,0,0,.7-0.08,2,2,0,0,0,.48-0.16l0.16-.07v-1H52a0.14,0.14,0,0,1-.1,0,0.12,0.12,0,0,1,0-.1V79.82A0.12,0.12,0,0,1,52,79.68h1.28a0.13,0.13,0,0,1,.09,0,0.14,0.14,0,0,1,0,.1v1.69a0.14,0.14,0,0,1-.06.12l-0.21.12a3,3,0,0,1-.68.25,3.6,3.6,0,0,1-.93.12A2.59,2.59,0,0,1,49.68,81.35Z" transform="translate(-3.72 -16.42)"/><path class="cls-1" d="M56.45,81.9V77a0.14,0.14,0,0,1,.14-0.14h1.92a1.58,1.58,0,0,1,1.14.46,1.5,1.5,0,0,1,.47,1.12,1.48,1.48,0,0,1-.3.91,1.81,1.81,0,0,1-.8.6l1,1.88A0.13,0.13,0,0,1,60,82a0.14,0.14,0,0,1-.13.07H59.53A0.13,0.13,0,0,1,59.42,82l-1-2H57V81.9a0.14,0.14,0,0,1,0,.1,0.13,0.13,0,0,1-.1,0H56.59A0.14,0.14,0,0,1,56.45,81.9ZM57,79.53h1.44a1.08,1.08,0,0,0,1.07-1.08,1,1,0,0,0-.32-0.73,1,1,0,0,0-.75-0.31H57v2.12Z" transform="translate(-3.72 -16.42)"/><path class="cls-1" d="M62.51,82A0.14,0.14,0,0,1,62.39,82a0.12,0.12,0,0,1,0-.13l2.25-5a0.14,0.14,0,0,1,.13-0.08h0.07a0.14,0.14,0,0,1,.13.08l2.23,5a0.12,0.12,0,0,1,0,.13,0.14,0.14,0,0,1-.12.06h-0.3A0.12,0.12,0,0,1,66.64,82L66.1,80.74H63.47L62.93,82a0.12,0.12,0,0,1-.13.08h-0.3Zm1.17-1.76H65.9l-1.08-2.43H64.76Z" transform="translate(-3.72 -16.42)"/><path class="cls-1" d="M69.75,81.9V77a0.14,0.14,0,0,1,.14-0.14h1.64a1.61,1.61,0,0,1,1.17.48,1.56,1.56,0,0,1,.49,1.15,1.61,1.61,0,0,1-.48,1.18,1.58,1.58,0,0,1-1.17.49H70.32V81.9a0.15,0.15,0,0,1-.14.14H69.89A0.14,0.14,0,0,1,69.75,81.9Zm0.56-2.29h1.18a1.13,1.13,0,0,0,1.12-1.13,1,1,0,0,0-.33-0.75,1.13,1.13,0,0,0-.79-0.31H70.32v2.19Z" transform="translate(-3.72 -16.42)"/><path class="cls-1" d="M75.92,81.9V77a0.15,0.15,0,0,1,.14-0.14h0.29a0.14,0.14,0,0,1,.14.14v2.16h3V77a0.14,0.14,0,0,1,.14-0.14h0.29a0.15,0.15,0,0,1,.14.14v4.9a0.15,0.15,0,0,1-.14.14H79.63a0.14,0.14,0,0,1-.14-0.14V79.66h-3V81.9a0.14,0.14,0,0,1-.14.14H76.06A0.15,0.15,0,0,1,75.92,81.9Z" transform="translate(-3.72 -16.42)"/><path class="cls-1" d="M84.37,81.9V79.55l-1.78-2.47a0.14,0.14,0,0,1,0-.14,0.13,0.13,0,0,1,.13-0.07h0.35a0.15,0.15,0,0,1,.12.07L84.67,79l1.49-2.06a0.15,0.15,0,0,1,.12-0.07h0.35a0.13,0.13,0,0,1,.13.07,0.14,0.14,0,0,1,0,.14l-1.81,2.46V81.9a0.15,0.15,0,0,1-.14.14H84.52A0.14,0.14,0,0,1,84.37,81.9Z" transform="translate(-3.72 -16.42)"/></svg>