<svg id="Layer_1" data-name="Layer 1" xmlns="http://www.w3.org/2000/svg" viewBox="0 0 91.33 65.7"><defs><style>.cls-1{fill:#231f20}</style></defs><path class="cls-1" d="M62.2 57.29H38.6L26.8 36.85l11.8-20.43h23.6l.14.25L74 36.85zm-23-1h22.42l11.22-19.44-11.22-19.43H39.18L28 36.85z" transform="translate(-3.72 -16.42)"/><path class="cls-1" d="M50.38 56.14l-16.57-9.57V27.44l16.57-9.57L67 27.44v19.13zm-13.74-11.2l13.74 7.93 13.74-7.93V29.07l-13.74-7.93-13.74 7.93v15.87z" transform="translate(-3.72 -16.42)"/><path class="cls-1" d="M42.92 45.2a10.67 10.67 0 0 1-3.27-7.88 11.15 11.15 0 0 1 11.18-11.17A11.27 11.27 0 0 1 58.32 29a.56.56 0 0 1 0 .87l-.84.84q-.34.43-.8 0a8.86 8.86 0 0 0-5.91-2.32 8.14 8.14 0 0 0-6.1 2.61 9.09 9.09 0 0 0 0 12.53 8.14 8.14 0 0 0 6.13 2.63 7.93 7.93 0 0 0 2.4-.36A8.23 8.23 0 0 0 55 45q.68-.42 1.7-1.19a.61.61 0 0 1 .74-.09l.93.84a.46.46 0 0 1 .17.4.66.66 0 0 1-.2.43 10.4 10.4 0 0 1-7.52 3 10.82 10.82 0 0 1-7.9-3.19z" transform="translate(-3.72 -16.42)"/><path class="cls-1" d="M51 43.8a6.43 6.43 0 0 1-6.43-6.43 6.2 6.2 0 0 1 1.89-4.55 6.49 6.49 0 0 1 4.22-1.88.32.32 0 0 1 .37.34V32q0 .32-.34.32a5.1 5.1 0 0 0-3.35 1.46 4.69 4.69 0 0 0-1.42 3.57 5.23 5.23 0 0 0 5.1 5.1A4.69 4.69 0 0 0 54.61 41a4.57 4.57 0 0 0 .83-1.12 4.74 4.74 0 0 0 .42-1.05q.11-.45.21-1.18a.35.35 0 0 1 .26-.34h.72a.26.26 0 0 1 .23.09.38.38 0 0 1 .09.26 6 6 0 0 1-1.84 4.29A6.23 6.23 0 0 1 51 43.8zM3.72 67.56A4.23 4.23 0 0 1 5 64.47a4.08 4.08 0 0 1 3-1.28 3.6 3.6 0 0 1 3 1.45.37.37 0 0 1-.08.58l-.39.33a.5.5 0 0 1-.25.13.21.21 0 0 1-.28-.06l-.18-.16A2.44 2.44 0 0 0 8 64.6a2.58 2.58 0 0 0-2 .85 2.94 2.94 0 0 0-.8 2.09 3 3 0 0 0 .8 2.11 2.52 2.52 0 0 0 1.95.87 2.89 2.89 0 0 0 .8-.1 2 2 0 0 0 .59-.26 4.15 4.15 0 0 0 .45-.35 4.45 4.45 0 0 0 .36-.36.43.43 0 0 1 .62 0l.23.12a.39.39 0 0 1 .15.58 3.75 3.75 0 0 1-1.33 1.26 3.63 3.63 0 0 1-1.82.48 4.1 4.1 0 0 1-3-1.24 4.17 4.17 0 0 1-1.28-3.09zm9.78 3.73V57.58a.43.43 0 0 1 .39-.39h.64a.37.37 0 0 1 .28.12.39.39 0 0 1 .11.27v6.71l.32-.29a3.52 3.52 0 0 1 1-.56 4 4 0 0 1 1.44-.27 3 3 0 0 1 2.38 1 4.12 4.12 0 0 1 .83 2.77v4.37a.43.43 0 0 1-.39.39h-.64a.43.43 0 0 1-.39-.39v-4.39a2.7 2.7 0 0 0-.47-1.75 1.69 1.69 0 0 0-1.38-.59 3.38 3.38 0 0 0-1.37.29 3.93 3.93 0 0 0-1 .58l-.31.29v5.55a.39.39 0 0 1-.11.27.37.37 0 0 1-.28.12h-.66a.43.43 0 0 1-.39-.39zm10.25 0v-7.5a.39.39 0 0 1 .11-.27.36.36 0 0 1 .28-.12h.39a.33.33 0 0 1 .35.29l.17.6.17-.19a2.43 2.43 0 0 1 .42-.36 3.24 3.24 0 0 1 .79-.37 3.36 3.36 0 0 1 1.11-.18 5.64 5.64 0 0 1 .71 0 1.4 1.4 0 0 1 .58.21.33.33 0 0 1 .16.43l-.25.7a.33.33 0 0 1-.5.19 2 2 0 0 0-.81-.17 2.71 2.71 0 0 0-1.26.29 2.41 2.41 0 0 0-.79.58l-.21.29v5.53a.43.43 0 0 1-.39.39h-.63a.36.36 0 0 1-.28-.12.39.39 0 0 1-.12-.22zm8.31-12.01a1 1 0 0 1-.7.28 1 1 0 0 1-1-1 1 1 0 0 1 .28-.7.93.93 0 0 1 .69-.29 1 1 0 0 1 1 1 .93.93 0 0 1-.27.71zm-1.39 12v-7.5a.39.39 0 0 1 .11-.27.36.36 0 0 1 .28-.12h.64a.43.43 0 0 1 .39.39v7.5a.43.43 0 0 1-.39.39h-.63a.36.36 0 0 1-.28-.12.39.39 0 0 1-.12-.26zm3.98-.28a.35.35 0 0 1-.1-.43l.16-.27.13-.3a.36.36 0 0 1 .56-.06l.25.19a2.89 2.89 0 0 0 .74.36 2.81 2.81 0 0 0 1 .18 1.57 1.57 0 0 0 1-.28.87.87 0 0 0 .36-.71 1 1 0 0 0-.39-.82 8.56 8.56 0 0 0-1.49-.86 10.44 10.44 0 0 1-1.13-.62 3.2 3.2 0 0 1-.84-.84 2 2 0 0 1-.39-1.21 2.09 2.09 0 0 1 .66-1.47 2.62 2.62 0 0 1 2-.68 4 4 0 0 1 2.3.64.43.43 0 0 1 .12.64l-.17.33a.4.4 0 0 1-.6.19l-.58-.25a2.86 2.86 0 0 0-1.08-.25 1.34 1.34 0 0 0-.9.25.75.75 0 0 0-.28.58.86.86 0 0 0 .25.6 1.93 1.93 0 0 0 .48.39l.81.41q.68.33 1.06.54a6.82 6.82 0 0 1 .82.55 2.08 2.08 0 0 1 .64.77 2.27 2.27 0 0 1 .2 1 2.12 2.12 0 0 1-.81 1.64 3 3 0 0 1-2.05.7 4.28 4.28 0 0 1-2.73-.91zm11.75-3.44a4.23 4.23 0 0 1 1.27-3.09 4.08 4.08 0 0 1 3-1.28 3.6 3.6 0 0 1 3 1.45.37.37 0 0 1-.08.58l-.39.33a.5.5 0 0 1-.25.13.21.21 0 0 1-.18-.06l-.18-.16a2.44 2.44 0 0 0-1.91-.87 2.58 2.58 0 0 0-2 .85 2.94 2.94 0 0 0-.8 2.09 3 3 0 0 0 .79 2.11 2.52 2.52 0 0 0 1.95.87 2.89 2.89 0 0 0 .8-.1 2 2 0 0 0 .58-.25 4.15 4.15 0 0 0 .45-.35 4.45 4.45 0 0 0 .36-.36.43.43 0 0 1 .62 0l.23.17a.39.39 0 0 1 .15.58 3.75 3.75 0 0 1-1.33 1.26 3.63 3.63 0 0 1-1.84.48 4.1 4.1 0 0 1-3-1.24 4.17 4.17 0 0 1-1.24-3.14zm9.76 3.73v-7.5a.39.39 0 0 1 .11-.27.36.36 0 0 1 .28-.12h.39a.33.33 0 0 1 .35.29l.17.6.17-.19a2.43 2.43 0 0 1 .42-.36 3.24 3.24 0 0 1 .79-.37 3.36 3.36 0 0 1 1.11-.18 5.64 5.64 0 0 1 .71 0 1.4 1.4 0 0 1 .58.21.33.33 0 0 1 .16.43l-.25.7a.33.33 0 0 1-.5.19 2 2 0 0 0-.81-.17 2.71 2.71 0 0 0-1.26.29 2.41 2.41 0 0 0-.79.58l-.21.29v5.53a.43.43 0 0 1-.39.39h-.64a.36.36 0 0 1-.28-.12.39.39 0 0 1-.11-.22zm6.25-3.77a4.31 4.31 0 0 1 1.2-3 4 4 0 0 1 5.84 0 4.31 4.31 0 0 1 1.2 3 4.36 4.36 0 0 1-1.2 3.09 4 4 0 0 1-5.84 0 4.36 4.36 0 0 1-1.2-3.09zm1.43 0a3.13 3.13 0 0 0 .78 2.14 2.53 2.53 0 0 0 3.83 0 3.13 3.13 0 0 0 .78-2.14 3 3 0 0 0-.78-2.09 2.55 2.55 0 0 0-3.83 0 3 3 0 0 0-.78 2.09zM73 71.29v-7.5a.39.39 0 0 1 .11-.27.36.36 0 0 1 .28-.12h.39a.31.31 0 0 1 .33.25l.19.64.34-.29a3.83 3.83 0 0 1 1.08-.56 4.25 4.25 0 0 1 1.49-.27q3.21 0 3.21 3.73v4.37a.39.39 0 0 1-.11.27.36.36 0 0 1-.28.12h-.67a.36.36 0 0 1-.28-.12.39.39 0 0 1-.08-.25v-4.37a2.7 2.7 0 0 0-.49-1.75 1.69 1.69 0 0 0-1.38-.59 3.31 3.31 0 0 0-1.36.3 3.66 3.66 0 0 0-1 .59l-.33.29v5.53a.43.43 0 0 1-.39.39h-.65a.36.36 0 0 1-.28-.12.39.39 0 0 1-.12-.27zm11.65-12.01a1 1 0 0 1-.7.28 1 1 0 0 1-1-1 1 1 0 0 1 .28-.7.93.93 0 0 1 .69-.29 1 1 0 0 1 1 1 .93.93 0 0 1-.27.71zm-1.39 12v-7.5a.39.39 0 0 1 .11-.27.36.36 0 0 1 .28-.12h.64a.43.43 0 0 1 .39.39v7.5a.43.43 0 0 1-.39.39h-.64a.36.36 0 0 1-.28-.12.39.39 0 0 1-.11-.26zm4.37.01v-7.5a.39.39 0 0 1 .11-.27.36.36 0 0 1 .26-.12h.39a.31.31 0 0 1 .33.25l.19.64.36-.29a3.83 3.83 0 0 1 1.08-.56 4.25 4.25 0 0 1 1.49-.27q3.21 0 3.21 3.73v4.37a.39.39 0 0 1-.11.27.36.36 0 0 1-.28.12H94a.36.36 0 0 1-.28-.12.39.39 0 0 1-.11-.27v-4.35a2.7 2.7 0 0 0-.49-1.75 1.69 1.69 0 0 0-1.38-.59 3.31 3.31 0 0 0-1.36.3 3.66 3.66 0 0 0-1 .59l-.33.29v5.53a.43.43 0 0 1-.39.39H88a.36.36 0 0 1-.28-.12.39.39 0 0 1-.09-.27zM14.94 81.9V77a.14.14 0 0 1 .14-.14h1.64a1.61 1.61 0 0 1 1.17.48 1.56 1.56 0 0 1 .49 1.15 1.61 1.61 0 0 1-.48 1.18 1.58 1.58 0 0 1-1.17.49H15.5v1.74a.15.15 0 0 1-.14.14h-.28a.14.14 0 0 1-.14-.14zm.56-2.29h1.18a1.13 1.13 0 0 0 1.12-1.13 1 1 0 0 0-.33-.75 1.13 1.13 0 0 0-.79-.31H15.5v2.19zm5.6 2.29V77a.15.15 0 0 1 .14-.14h.29a.14.14 0 0 1 .14.14v2.16h3V77a.14.14 0 0 1 .14-.14h.29a.15.15 0 0 1 .14.14v4.9a.15.15 0 0 1-.14.14h-.29a.14.14 0 0 1-.14-.14v-2.24h-3v2.24a.14.14 0 0 1-.14.14h-.29a.15.15 0 0 1-.14-.14zm7.8-.55a2.68 2.68 0 1 1 1.88.77 2.56 2.56 0 0 1-1.88-.77zm.37-3.4a2.08 2.08 0 0 0-.63 1.52 2.16 2.16 0 1 0 .64-1.52zM37 81.9v-4.54h-1.31a.14.14 0 0 1-.14-.14V77a.14.14 0 0 1 .14-.14h3.14A.14.14 0 0 1 39 77v.21a.14.14 0 0 1-.14.14h-1.32v4.55a.14.14 0 0 1 0 .1.13.13 0 0 1-.1 0h-.32a.13.13 0 0 1-.1 0 .14.14 0 0 1-.02-.1zm4.84-.55a2.68 2.68 0 1 1 1.88.77 2.56 2.56 0 0 1-1.88-.77zm.37-3.4a2.08 2.08 0 0 0-.63 1.52 2.16 2.16 0 1 0 .64-1.52zm7.47 3.4a2.67 2.67 0 0 1 1.89-4.55 2.7 2.7 0 0 1 1.79.69.13.13 0 0 1 0 .21l-.21.21a.12.12 0 0 1-.19 0 2.49 2.49 0 0 0-.67-.42 1.87 1.87 0 0 0-.74-.16 1.94 1.94 0 0 0-1.46.63 2.1 2.1 0 0 0-.6 1.5 2.12 2.12 0 0 0 .6 1.5 1.92 1.92 0 0 0 1.46.64 3.06 3.06 0 0 0 .7-.08 2 2 0 0 0 .48-.16l.16-.07v-1H52a.14.14 0 0 1-.1 0 .12.12 0 0 1 0-.1v-.37a.12.12 0 0 1 .1-.14h1.28a.13.13 0 0 1 .09 0 .14.14 0 0 1 0 .1v1.69a.14.14 0 0 1-.06.12l-.21.12a3 3 0 0 1-.68.25 3.6 3.6 0 0 1-.93.12 2.59 2.59 0 0 1-1.81-.73zm6.77.55V77a.14.14 0 0 1 .14-.14h1.92a1.58 1.58 0 0 1 1.14.46 1.5 1.5 0 0 1 .47 1.12 1.48 1.48 0 0 1-.3.91 1.81 1.81 0 0 1-.8.6l1 1.88A.13.13 0 0 1 60 82a.14.14 0 0 1-.13.07h-.34a.13.13 0 0 1-.11-.07l-1-2H57v1.9a.14.14 0 0 1 0 .1.13.13 0 0 1-.1 0h-.31a.14.14 0 0 1-.14-.1zm.55-2.37h1.44a1.08 1.08 0 0 0 1.07-1.08 1 1 0 0 0-.32-.73 1 1 0 0 0-.75-.31H57v2.12zM62.51 82a.14.14 0 0 1-.12 0 .12.12 0 0 1 0-.13l2.25-5a.14.14 0 0 1 .13-.08h.07a.14.14 0 0 1 .13.08l2.23 5a.12.12 0 0 1 0 .13.14.14 0 0 1-.12.06h-.3a.12.12 0 0 1-.14-.06l-.54-1.26h-2.63L62.93 82a.12.12 0 0 1-.13.08h-.3zm1.17-1.76h2.22l-1.08-2.43h-.06zm6.07 1.66V77a.14.14 0 0 1 .14-.14h1.64a1.61 1.61 0 0 1 1.17.48 1.56 1.56 0 0 1 .49 1.15 1.61 1.61 0 0 1-.48 1.18 1.58 1.58 0 0 1-1.17.49h-1.22v1.74a.15.15 0 0 1-.14.14h-.29a.14.14 0 0 1-.14-.14zm.56-2.29h1.18a1.13 1.13 0 0 0 1.12-1.13 1 1 0 0 0-.33-.75 1.13 1.13 0 0 0-.79-.31h-1.17v2.19zm5.61 2.29V77a.15.15 0 0 1 .14-.14h.29a.14.14 0 0 1 .14.14v2.16h3V77a.14.14 0 0 1 .14-.14h.29a.15.15 0 0 1 .14.14v4.9a.15.15 0 0 1-.14.14h-.29a.14.14 0 0 1-.14-.14v-2.24h-3v2.24a.14.14 0 0 1-.14.14h-.29a.15.15 0 0 1-.14-.14zm8.45 0v-2.35l-1.78-2.47a.14.14 0 0 1 0-.14.13.13 0 0 1 .13-.07h.35a.15.15 0 0 1 .12.07L84.67 79l1.49-2.06a.15.15 0 0 1 .12-.07h.35a.13.13 0 0 1 .13.07.14.14 0 0 1 0 .14l-1.81 2.46v2.36a.15.15 0 0 1-.14.14h-.29a.14.14 0 0 1-.15-.14z" transform="translate(-3.72 -16.42)"/></svg>